<?xml version="1.0" encoding="UTF-8"?>
<!DOCTYPE svg PUBLIC "-//W3C//DTD SVG 1.1//EN" "http://www.w3.org/Graphics/SVG/1.1/DTD/svg11.dtd">
<svg xmlns="http://www.w3.org/2000/svg" version="1.1" width="512px" height="512px" style="shape-rendering:geometricPrecision; text-rendering:geometricPrecision; image-rendering:optimizeQuality; fill-rule:evenodd; clip-rule:evenodd" xmlns:xlink="http://www.w3.org/1999/xlink">
<g><path style="opacity:1" fill="#fefffe" d="M -0.5,47.5 C 30.0736,47.1711 60.5736,47.5045 91,48.5C 128.069,133.208 165.236,217.875 202.5,302.5C 284.164,303.5 365.831,303.833 447.5,303.5C 447.5,314.167 447.5,324.833 447.5,335.5C 358.499,335.667 269.499,335.5 180.5,335C 143.204,250.24 106.038,165.407 69,80.5C 45.9083,79.5059 22.7417,79.1726 -0.5,79.5C -0.5,68.8333 -0.5,58.1667 -0.5,47.5 Z"/></g>
<g><path style="opacity:1" fill="#fefffe" d="M 511.5,111.5 C 511.5,112.5 511.5,113.5 511.5,114.5C 490.135,166.24 469.135,218.24 448.5,270.5C 373.167,271.833 297.833,271.833 222.5,270.5C 201.204,217.58 180.204,164.58 159.5,111.5C 276.833,111.5 394.167,111.5 511.5,111.5 Z"/></g>
<g><path style="opacity:1" fill="#fefffe" d="M 229.5,367.5 C 259.16,364.564 278.326,377.231 287,405.5C 290.421,435.18 277.921,454.346 249.5,463C 219.82,466.421 200.654,453.921 192,425.5C 188.699,395.735 201.199,376.402 229.5,367.5 Z"/></g>
<g><path style="opacity:1" fill="#fefffe" d="M 389.5,367.5 C 419.16,364.564 438.326,377.231 447,405.5C 450.421,435.18 437.921,454.346 409.5,463C 374.814,465.813 355.147,449.98 350.5,415.5C 352.551,390.462 365.551,374.462 389.5,367.5 Z"/></g>
</svg>
