<?xml version="1.0" encoding="UTF-8"?>
<!DOCTYPE svg PUBLIC "-//W3C//DTD SVG 1.1//EN" "http://www.w3.org/Graphics/SVG/1.1/DTD/svg11.dtd">
<svg xmlns="http://www.w3.org/2000/svg" version="1.1" width="500px" height="500px" style="shape-rendering:geometricPrecision; text-rendering:geometricPrecision; image-rendering:optimizeQuality; fill-rule:evenodd; clip-rule:evenodd" xmlns:xlink="http://www.w3.org/1999/xlink">
<g><path style="opacity:1" fill="#FFFFFF" d="M -0.5,39.5 C 166.167,39.5 332.833,39.5 499.5,39.5C 499.5,68.8333 499.5,98.1667 499.5,127.5C 332.833,127.5 166.167,127.5 -0.5,127.5C -0.5,98.1667 -0.5,68.8333 -0.5,39.5 Z"/></g>
<g><path style="opacity:1" fill="#FFFFFF" d="M -0.5,215.5 C 166.167,215.5 332.833,215.5 499.5,215.5C 499.5,244.833 499.5,274.167 499.5,303.5C 332.833,303.5 166.167,303.5 -0.5,303.5C -0.5,274.167 -0.5,244.833 -0.5,215.5 Z"/></g>
<g><path style="opacity:1" fill="#FFFFFF" d="M -0.5,391.5 C 166.167,391.5 332.833,391.5 499.5,391.5C 499.5,420.833 499.5,450.167 499.5,479.5C 332.833,479.5 166.167,479.5 -0.5,479.5C -0.5,450.167 -0.5,420.833 -0.5,391.5 Z"/></g>
</svg>
